
<svg version="1.1" id="Layer_2" xmlns="http://www.w3.org/2000/svg" xmlns:xlink="http://www.w3.org/1999/xlink" x="0px" y="0px" viewBox="0 0 418 417" style="enable-background:new 0 0 418 417;" xml:space="preserve">
<style type="text/css">
.st0{enable-background:new    ;}
.st1{clip-path:url(/web/20200803090318im_/https://www.imperfectgamers.org/#SVGID_2_);enable-background:new    ;}
.st2{fill:#841C1C;}
.st3{clip-path:url(/web/20200803090318im_/https://www.imperfectgamers.org/#SVGID_4_);enable-background:new    ;}
.st4{clip-path:url(/web/20200803090318im_/https://www.imperfectgamers.org/#SVGID_6_);enable-background:new    ;}
.st5{clip-path:url(/web/20200803090318im_/https://www.imperfectgamers.org/#SVGID_8_);enable-background:new    ;}
.st6{clip-path:url(/web/20200803090318im_/https://www.imperfectgamers.org/#SVGID_10_);enable-background:new    ;}
.st7{clip-path:url(/web/20200803090318im_/https://www.imperfectgamers.org/#SVGID_12_);enable-background:new    ;}
.st8{clip-path:url(/web/20200803090318im_/https://www.imperfectgamers.org/#SVGID_14_);enable-background:new    ;}
.st9{clip-path:url(/web/20200803090318im_/https://www.imperfectgamers.org/#SVGID_16_);enable-background:new    ;}
.st10{clip-path:url(/web/20200803090318im_/https://www.imperfectgamers.org/#SVGID_18_);enable-background:new    ;}
.st11{clip-path:url(/web/20200803090318im_/https://www.imperfectgamers.org/#SVGID_20_);enable-background:new    ;}
.st12{clip-path:url(/web/20200803090318im_/https://www.imperfectgamers.org/#SVGID_22_);enable-background:new    ;}
.st13{clip-path:url(/web/20200803090318im_/https://www.imperfectgamers.org/#SVGID_24_);enable-background:new    ;}
.st14{clip-path:url(/web/20200803090318im_/https://www.imperfectgamers.org/#SVGID_26_);enable-background:new    ;}
.st15{clip-path:url(/web/20200803090318im_/https://www.imperfectgamers.org/#SVGID_28_);enable-background:new    ;}
.st16{clip-path:url(/web/20200803090318im_/https://www.imperfectgamers.org/#SVGID_30_);enable-background:new    ;}
.st17{clip-path:url(/web/20200803090318im_/https://www.imperfectgamers.org/#SVGID_32_);enable-background:new    ;}
.st18{clip-path:url(/web/20200803090318im_/https://www.imperfectgamers.org/#SVGID_34_);enable-background:new    ;}
.st19{clip-path:url(/web/20200803090318im_/https://www.imperfectgamers.org/#SVGID_36_);enable-background:new    ;}
.st20{clip-path:url(/web/20200803090318im_/https://www.imperfectgamers.org/#SVGID_38_);enable-background:new    ;}
.st21{clip-path:url(/web/20200803090318im_/https://www.imperfectgamers.org/#SVGID_40_);enable-background:new    ;}
.st22{clip-path:url(/web/20200803090318im_/https://www.imperfectgamers.org/#SVGID_42_);enable-background:new    ;}
.st23{clip-path:url(/web/20200803090318im_/https://www.imperfectgamers.org/#SVGID_44_);enable-background:new    ;}
.st24{clip-path:url(/web/20200803090318im_/https://www.imperfectgamers.org/#SVGID_46_);enable-background:new    ;}
.st25{fill:#FB3434;}
.st26{fill:#848484;}
.st27{fill:#FBFBFB;}

svg {
    width: 300px;
    align-self: center;
    justify-self:center;
    margin-left: 0px;
}

svg:hover #Logo {
    animation-duration: 1.2s;
    animation-name: animateLogo;
    animation-iteration-count: infinite;
    animation-direction: alternate;
}

#Logo {
    opacity: 0;
}

@keyframes animateLogo {
    from {
        transform: translateX(0) translateY(0);
        opacity: 0;
    }
    to {
        transform: translateX(120px) translateY(-60px);
        opacity: 1;
    }
}

</style>
	<switch>
	
		<g>
		<g id="HEADSET">
			<g>
				<g class="st0">
					<defs>
						<path id="SVGID_1_" class="st0" d="M254.4,401.7l10.6-6.1c-0.1,0-0.1,0.1-0.2,0.1c-0.2,0.2-0.4,0.4-0.7,0.5l-10.6,6.1
							c0.2-0.1,0.4-0.3,0.7-0.5C254.3,401.8,254.4,401.7,254.4,401.7z"></path>
					</defs>
					<clipPath id="SVGID_2_">
						<use xlink:href="/web/20200803090318im_/https://www.imperfectgamers.org/#SVGID_1_" style="overflow:visible;"></use>
					</clipPath>
					<g class="st1">
						<path class="st2" d="M254.4,401.7l10.6-6.1c-0.1,0-0.1,0.1-0.2,0.1c-0.2,0.2-0.4,0.4-0.7,0.5l-10.6,6.1
							c0.2-0.1,0.4-0.3,0.7-0.5C254.3,401.8,254.4,401.7,254.4,401.7"></path>
					</g>
				</g>
				<g class="st0">
					<defs>
						<path id="SVGID_3_" class="st0" d="M50.1,93.5l10.6-6.1c0.4-0.2,0.8-0.4,1.3-0.6c6.6-2.9,13-6.2,21.1-6c0.3,0,0.5-0.1,0.7-0.2
							l-10.6,6.1c-0.2,0.1-0.4,0.2-0.7,0.2c-8.1-0.2-14.4,3.1-21.1,6C50.9,93,50.5,93.2,50.1,93.5z"></path>
					</defs>
					<clipPath id="SVGID_4_">
						<use xlink:href="/web/20200803090318im_/https://www.imperfectgamers.org/#SVGID_3_" style="overflow:visible;"></use>
					</clipPath>
					<g class="st3">
						<path class="st2" d="M50.1,93.5l10.6-6.1c0.4-0.2,0.8-0.4,1.3-0.6c6.6-2.9,13-6.2,21.1-6c0.3,0,0.5-0.1,0.7-0.2l-10.6,6.1
							c-0.2,0.1-0.4,0.2-0.7,0.2c-8.1-0.2-14.4,3.1-21.1,6C50.9,93,50.5,93.2,50.1,93.5"></path>
					</g>
				</g>
				<g class="st0">
					<defs>
						<path id="SVGID_5_" class="st0" d="M218.3,368l10.6-6.1c0.4-0.1,0.9,0.1,1.3,0.3c6.7,3.9,12.4,7.2,18.1,10.4c4,2.3,8,4.6,12,7
							l-10.6,6.1c-4-2.4-8-4.7-12-7c-5.7-3.3-11.3-6.5-18.1-10.4C219.1,368.1,218.7,367.9,218.3,368z"></path>
					</defs>
					<clipPath id="SVGID_6_">
						<use xlink:href="/web/20200803090318im_/https://www.imperfectgamers.org/#SVGID_5_" style="overflow:visible;"></use>
					</clipPath>
					<g class="st4">
						<path class="st2" d="M218.3,368l10.6-6.1c0.4-0.1,0.9,0.1,1.3,0.3c6.7,3.9,12.4,7.2,18.1,10.4c4,2.3,8,4.6,12,7l-10.6,6.1
							c-4-2.4-8-4.7-12-7c-5.7-3.3-11.3-6.5-18.1-10.4C219.1,368.1,218.7,367.9,218.3,368"></path>
					</g>
				</g>
				<g class="st0">
					<defs>
						<path id="SVGID_7_" class="st0" d="M133.8,97l10.6-6.1c-0.4,0.2-0.5,0.9-0.5,2c0,29.4-0.1,58.8-0.2,88.2
							c0,1.8,0.4,3.4,1.6,5.3c7.9,13.6,15.7,27.1,23.6,40.7c0.5,0.8,0.8,1.8,1.6,2.4l-10.6,6.1c-0.8-0.6-1.2-1.6-1.6-2.4
							c-7.9-13.6-15.7-27.2-23.6-40.7c-1.1-1.9-1.6-3.5-1.6-5.3c0.1-29.4,0.2-58.7,0.2-88.2C133.3,97.8,133.4,97.2,133.8,97z"></path>
					</defs>
					<clipPath id="SVGID_8_">
						<use xlink:href="/web/20200803090318im_/https://www.imperfectgamers.org/#SVGID_7_" style="overflow:visible;"></use>
					</clipPath>
					<g class="st5">
						<path class="st2" d="M133.8,97l10.6-6.1c-0.4,0.2-0.5,0.9-0.5,2c0,29.4-0.1,58.8-0.2,88.2c0,1.8,0.4,3.4,1.6,5.3
							c7.9,13.6,15.7,27.1,23.6,40.7c0.5,0.8,0.8,1.8,1.6,2.4l-10.6,6.1c-0.8-0.6-1.2-1.6-1.6-2.4c-7.9-13.6-15.7-27.2-23.6-40.7
							c-1.1-1.9-1.6-3.5-1.6-5.3c0.1-29.4,0.2-58.7,0.2-88.2C133.3,97.8,133.4,97.2,133.8,97"></path>
					</g>
				</g>
				<g class="st0">
					<defs>
						<path id="SVGID_9_" class="st0" d="M168.8,153.8l10.6-6.1c-1,0.6-1.1,1.2,0,3.1c5.4,9.2,10.7,18.5,16,27.7
							c0.5,0.9,0.9,1.4,1.3,1.7c0.4,0.2,0.8,0.1,1.4-0.2l-10.6,6.1c-0.5,0.3-0.9,0.4-1.4,0.2c-0.4-0.2-0.8-0.7-1.3-1.7
							c-5.3-9.3-10.6-18.5-16-27.7C167.7,155,167.8,154.4,168.8,153.8z"></path>
					</defs>
					<clipPath id="SVGID_10_">
						<use xlink:href="/web/20200803090318im_/https://www.imperfectgamers.org/#SVGID_9_" style="overflow:visible;"></use>
					</clipPath>
					<g class="st6">
						<path class="st2" d="M168.8,153.8l10.6-6.1c-1,0.6-1.1,1.2,0,3.1c5.4,9.2,10.7,18.5,16,27.7c0.5,0.9,0.9,1.4,1.3,1.7
							c0.4,0.2,0.8,0.1,1.4-0.2l-10.6,6.1c-0.5,0.3-0.9,0.4-1.4,0.2c-0.4-0.2-0.8-0.7-1.3-1.7c-5.3-9.3-10.6-18.5-16-27.7
							C167.7,155,167.8,154.4,168.8,153.8"></path>
					</g>
				</g>
				<g class="st0">
					<defs>
						<path id="SVGID_11_" class="st0" d="M189.7,184.8l10.6-6.1c3.4-2,6.8-3.9,10.2-5.8l-10.6,6.1
							C196.5,180.9,193.1,182.8,189.7,184.8z"></path>
					</defs>
					<clipPath id="SVGID_12_">
						<use xlink:href="/web/20200803090318im_/https://www.imperfectgamers.org/#SVGID_11_" style="overflow:visible;"></use>
					</clipPath>
					<g class="st7">
						<path class="st2" d="M189.7,184.8l10.6-6.1c3.4-2,6.8-3.9,10.2-5.8l-10.6,6.1C196.5,180.9,193.1,182.8,189.7,184.8"></path>
					</g>
				</g>
				<g class="st0">
					<defs>
						<path id="SVGID_13_" class="st0" d="M125.3,41.3l10.6-6.1c-8.4,4.9-15.6,11.7-21.9,20c-6.7,9-11.5,19.9-14.8,32.3
							c-1.9,7.3-3.1,15.1-3.8,23.5c-0.7,8.7-0.7,17.7-0.3,26.9c0.3,9.2,1.7,18.9,3.6,28.8c2.5,13.1,6,26.4,10.6,39.8
							c3.1,9.1,6.7,18.2,10.8,27.2c0.3,0.7,0.5,1.4,0.9,2.4l-10.6,6.1c-0.4-1.1-0.6-1.8-0.9-2.4c-4.1-9-7.8-18.1-10.8-27.2
							C94,199.2,90.5,186,88,172.8c-1.9-9.9-3.2-19.6-3.6-28.8c-0.3-9.2-0.4-18.3,0.3-26.9c0.7-8.3,1.9-16.2,3.8-23.5
							c3.3-12.5,8.2-23.4,14.8-32.3C109.6,53,116.9,46.2,125.3,41.3z"></path>
					</defs>
					<clipPath id="SVGID_14_">
						<use xlink:href="/web/20200803090318im_/https://www.imperfectgamers.org/#SVGID_13_" style="overflow:visible;"></use>
					</clipPath>
					<g class="st8">
						<path class="st2" d="M125.3,41.3l10.6-6.1c-8.4,4.9-15.6,11.7-21.9,20c-6.7,9-11.5,19.9-14.8,32.3c-1.9,7.3-3.1,15.1-3.8,23.5
							c-0.7,8.7-0.7,17.7-0.3,26.9c0.3,9.2,1.7,18.9,3.6,28.8c2.5,13.1,6,26.4,10.6,39.8c3.1,9.1,6.7,18.2,10.8,27.2
							c0.3,0.7,0.5,1.4,0.9,2.4l-10.6,6.1c-0.4-1.1-0.6-1.8-0.9-2.4c-4.1-9-7.8-18.1-10.8-27.2C94,199.2,90.5,186,88,172.8
							c-1.9-9.9-3.2-19.6-3.6-28.8c-0.3-9.2-0.4-18.3,0.3-26.9c0.7-8.3,1.9-16.2,3.8-23.5c3.3-12.5,8.2-23.4,14.8-32.3
							C109.6,53,116.9,46.2,125.3,41.3"></path>
					</g>
				</g>
				<g class="st0">
					<defs>
						<path id="SVGID_15_" class="st0" d="M249.6,385.8l10.6-6.1c5.4,3.1,9.7,4.7,14.1,5.8c8,2,15.8,3.1,23.2,3.1
							c9.9,0.1,19.3-1.3,27.8-4.7c3.8-1.5,7.6-3.2,11.1-5.3l-10.6,6.1c-3.5,2-7.3,3.8-11.1,5.3c-8.5,3.3-17.9,4.7-27.8,4.7
							c-7.4,0-15.2-1.1-23.2-3.1C259.3,390.5,255,388.9,249.6,385.8z"></path>
					</defs>
					<clipPath id="SVGID_16_">
						<use xlink:href="/web/20200803090318im_/https://www.imperfectgamers.org/#SVGID_15_" style="overflow:visible;"></use>
					</clipPath>
					<g class="st9">
						<path class="st2" d="M249.6,385.8l10.6-6.1c5.4,3.1,9.7,4.7,14.1,5.8c8,2,15.8,3.1,23.2,3.1c9.9,0.1,19.3-1.3,27.8-4.7
							c3.8-1.5,7.6-3.2,11.1-5.3l-10.6,6.1c-3.5,2-7.3,3.8-11.1,5.3c-8.5,3.3-17.9,4.7-27.8,4.7c-7.4,0-15.2-1.1-23.2-3.1
							C259.3,390.5,255,388.9,249.6,385.8"></path>
					</g>
				</g>
				<g class="st0">
					<defs>
						<path id="SVGID_17_" class="st0" d="M202.8,134.3l-10.6,6.1c0.4-0.2,0.8-0.5,1.2-0.7l10.6-6.1
							C203.6,133.8,203.2,134,202.8,134.3z"></path>
					</defs>
					<clipPath id="SVGID_18_">
						<use xlink:href="/web/20200803090318im_/https://www.imperfectgamers.org/#SVGID_17_" style="overflow:visible;"></use>
					</clipPath>
					<g class="st10">
						<path class="st2" d="M193.5,139.7l10.6-6.1c-0.4,0.2-0.8,0.5-1.2,0.7l-10.6,6.1C192.7,140.2,193.1,139.9,193.5,139.7"></path>
					</g>
				</g>
				<g class="st0">
					<defs>
						<path id="SVGID_19_" class="st0" d="M215.6,224.2l10.6-6.1c0.4-0.2,1-0.3,1.3-0.5c8.9-5.1,17.8-10.1,26.6-15.2
							c0.2-0.1,0.5-0.2,0.8-0.4l-10.6,6.1c-0.3,0.2-0.6,0.2-0.8,0.4c-8.9,5.1-17.8,10.1-26.6,15.2C216.6,223.9,216,224,215.6,224.2z
							"></path>
					</defs>
					<clipPath id="SVGID_20_">
						<use xlink:href="/web/20200803090318im_/https://www.imperfectgamers.org/#SVGID_19_" style="overflow:visible;"></use>
					</clipPath>
					<g class="st11">
						<path class="st2" d="M215.6,224.2l10.6-6.1c0.4-0.2,1-0.3,1.3-0.5c8.9-5.1,17.8-10.1,26.6-15.2c0.2-0.1,0.5-0.2,0.8-0.4
							l-10.6,6.1c-0.3,0.2-0.6,0.2-0.8,0.4c-8.9,5.1-17.8,10.1-26.6,15.2C216.6,223.9,216,224,215.6,224.2"></path>
					</g>
				</g>
				<g class="st0">
					<defs>
						<path id="SVGID_21_" class="st0" d="M355.2,386.6l10.6-6.1c-0.9,0.6-1.8,1.3-2.7,2.2c-5.5,5.9-11.6,10.8-18.1,14.5l-10.6,6.1
							c6.5-3.8,12.5-8.6,18.1-14.5C353.3,387.8,354.2,387.1,355.2,386.6z"></path>
					</defs>
					<clipPath id="SVGID_22_">
						<use xlink:href="/web/20200803090318im_/https://www.imperfectgamers.org/#SVGID_21_" style="overflow:visible;"></use>
					</clipPath>
					<g class="st12">
						<path class="st2" d="M355.2,386.6l10.6-6.1c-0.9,0.6-1.8,1.3-2.7,2.2c-5.5,5.9-11.6,10.8-18.1,14.5l-10.6,6.1
							c6.5-3.8,12.5-8.6,18.1-14.5C353.3,387.8,354.2,387.1,355.2,386.6"></path>
					</g>
				</g>
				<g class="st0">
					<defs>
						<path id="SVGID_23_" class="st0" d="M175.4,204.5l10.6-6.1c-1.1,0.6-1.1,1.2,0,3.2c8.1,13.9,16.2,27.9,24.2,41.9
							c1,1.8,2,2.8,3.5,3.6c17.9,10.3,35.7,20.6,53.6,30.9c19.1,11,38.2,22.1,57.3,33.1c1,0.6,1.6,0.8,2,0.6l-10.6,6.1
							c-0.4,0.2-1,0-2-0.6c-19.1-11.1-38.2-22.1-57.3-33.1c-17.9-10.3-35.7-20.6-53.6-30.9c-1.4-0.8-2.5-1.9-3.5-3.6
							c-8-14-16.1-28-24.2-41.9C174.3,205.7,174.4,205.1,175.4,204.5z"></path>
					</defs>
					<clipPath id="SVGID_24_">
						<use xlink:href="/web/20200803090318im_/https://www.imperfectgamers.org/#SVGID_23_" style="overflow:visible;"></use>
					</clipPath>
					<g class="st13">
						<path class="st2" d="M175.4,204.5l10.6-6.1c-1.1,0.6-1.1,1.2,0,3.2c8.1,13.9,16.2,27.9,24.2,41.9c1,1.8,2,2.8,3.5,3.6
							c17.9,10.3,35.7,20.6,53.6,30.9c19.1,11,38.2,22.1,57.3,33.1c1,0.6,1.6,0.8,2,0.6l-10.6,6.1c-0.4,0.2-1,0-2-0.6
							c-19.1-11.1-38.2-22.1-57.3-33.1c-17.9-10.3-35.7-20.6-53.6-30.9c-1.4-0.8-2.5-1.9-3.5-3.6c-8-14-16.1-28-24.2-41.9
							C174.3,205.7,174.4,205.1,175.4,204.5"></path>
					</g>
				</g>
				<g class="st0">
					<defs>
						<path id="SVGID_25_" class="st0" d="M299.5,264.9L289,271c0.4-0.2,0.5-0.9,0.5-2c-0.1-5,0-5-4.4-7.5
							c-11.9-6.9-23.8-13.7-36.5-21l10.6-6.1c12.6,7.3,24.5,14.2,36.5,21c4.3,2.5,4.2,2.5,4.4,7.5C300,264,299.9,264.6,299.5,264.9z
							"></path>
					</defs>
					<clipPath id="SVGID_26_">
						<use xlink:href="/web/20200803090318im_/https://www.imperfectgamers.org/#SVGID_25_" style="overflow:visible;"></use>
					</clipPath>
					<g class="st14">
						<path class="st2" d="M248.6,240.5l10.6-6.1c12.6,7.3,24.5,14.2,36.5,21c4.3,2.5,4.2,2.5,4.4,7.5c0,1.1-0.1,1.8-0.5,2L289,271
							c0.4-0.2,0.5-0.9,0.5-2c-0.1-5,0-5-4.4-7.5C273.1,254.7,261.2,247.8,248.6,240.5"></path>
					</g>
				</g>
				<g class="st0">
					<defs>
						<path id="SVGID_27_" class="st0" d="M283.4,220.6l-10.6,6.1c0.5-0.3,1-0.6,1.5-0.9l10.6-6.1
							C284.4,220,283.9,220.3,283.4,220.6z"></path>
					</defs>
					<clipPath id="SVGID_28_">
						<use xlink:href="/web/20200803090318im_/https://www.imperfectgamers.org/#SVGID_27_" style="overflow:visible;"></use>
					</clipPath>
					<g class="st15">
						<path class="st2" d="M274.4,225.9l10.6-6.1c-0.5,0.3-1,0.6-1.5,0.9l-10.6,6.1C273.3,226.5,273.8,226.2,274.4,225.9"></path>
					</g>
				</g>
				<g class="st0">
					<defs>
						<path id="SVGID_29_" class="st0" d="M203.1,177.1l10.6-6.1c1.2-0.7,2.5-0.5,4.2,0.5c35.7,20.6,71.3,41.2,106.9,61.8l-10.6,6.1
							c-35.6-20.7-71.3-41.2-106.9-61.8C205.5,176.6,204.3,176.4,203.1,177.1z"></path>
					</defs>
					<clipPath id="SVGID_30_">
						<use xlink:href="/web/20200803090318im_/https://www.imperfectgamers.org/#SVGID_29_" style="overflow:visible;"></use>
					</clipPath>
					<g class="st16">
						<path class="st2" d="M203.1,177.1l10.6-6.1c1.2-0.7,2.5-0.5,4.2,0.5c35.7,20.6,71.3,41.2,106.9,61.8l-10.6,6.1
							c-35.6-20.7-71.3-41.2-106.9-61.8C205.5,176.6,204.3,176.4,203.1,177.1"></path>
					</g>
				</g>
				<g class="st0">
					<defs>
						<path id="SVGID_31_" class="st0" d="M326.8,233.8l-10.6,6.1c-0.4,0.2-1,0-2-0.6l10.6-6.1C325.7,233.8,326.4,234,326.8,233.8z"></path>
					</defs>
					<clipPath id="SVGID_32_">
						<use xlink:href="/web/20200803090318im_/https://www.imperfectgamers.org/#SVGID_31_" style="overflow:visible;"></use>
					</clipPath>
					<g class="st17">
						<path class="st2" d="M314.1,239.4l10.6-6.1c1,0.6,1.7,0.8,2,0.6l-10.6,6.1C315.8,240.2,315.2,240,314.1,239.4"></path>
					</g>
				</g>
				<g class="st0">
					<defs>
						<path id="SVGID_33_" class="st0" d="M131.6,53l10.6-6.1c23.9-13.9,57.1-12,93.7,9.2l-10.6,6.1C188.7,41,155.6,39.1,131.6,53z"></path>
					</defs>
					<clipPath id="SVGID_34_">
						<use xlink:href="/web/20200803090318im_/https://www.imperfectgamers.org/#SVGID_33_" style="overflow:visible;"></use>
					</clipPath>
					<g class="st18">
						<path class="st2" d="M131.6,53l10.6-6.1c23.9-13.9,57.1-12,93.7,9.2l-10.6,6.1C188.7,41,155.6,39.1,131.6,53"></path>
					</g>
				</g>
				<g class="st0">
					<defs>
						<path id="SVGID_35_" class="st0" d="M118.2,20.6l10.6-6.1c0.8-0.5,1.6-0.9,2.4-1.4c21-11.4,46.3-11.6,74.6-3.3
							c7.4,2.2,14.8,5.1,22.3,8L217.6,24c-7.5-3-14.9-5.9-22.3-8c-28.3-8.3-53.6-8.1-74.6,3.3C119.8,19.7,119,20.2,118.2,20.6z"></path>
					</defs>
					<clipPath id="SVGID_36_">
						<use xlink:href="/web/20200803090318im_/https://www.imperfectgamers.org/#SVGID_35_" style="overflow:visible;"></use>
					</clipPath>
					<g class="st19">
						<path class="st2" d="M118.2,20.6l10.6-6.1c0.8-0.5,1.6-0.9,2.4-1.4c21-11.4,46.3-11.6,74.6-3.3c7.4,2.2,14.8,5.1,22.3,8
							L217.6,24c-7.5-3-14.9-5.9-22.3-8c-28.3-8.3-53.6-8.1-74.6,3.3C119.8,19.7,119,20.2,118.2,20.6"></path>
					</g>
				</g>
				<g class="st0">
					<defs>
						<path id="SVGID_37_" class="st0" d="M217.6,24l10.6-6.1c5.4,3.1,10.8,6.3,16.2,9.4l-10.6,6.1C228.4,30.2,223,27.1,217.6,24z"></path>
					</defs>
					<clipPath id="SVGID_38_">
						<use xlink:href="/web/20200803090318im_/https://www.imperfectgamers.org/#SVGID_37_" style="overflow:visible;"></use>
					</clipPath>
					<g class="st20">
						<path class="st2" d="M217.6,24l10.6-6.1c5.4,3.1,10.8,6.3,16.2,9.4l-10.6,6.1C228.4,30.2,223,27.1,217.6,24"></path>
					</g>
				</g>
				<g class="st0">
					<defs>
						<path id="SVGID_39_" class="st0" d="M401.2,383.4l-10.6,6.1c0.4-0.3,0.8-0.7,1-1.4c6.5-21.3,11.7-43.8,12.8-69.4l10.6-6.1
							c-1.1,25.7-6.3,48.1-12.8,69.4C402,382.8,401.6,383.2,401.2,383.4z"></path>
					</defs>
					<clipPath id="SVGID_40_">
						<use xlink:href="/web/20200803090318im_/https://www.imperfectgamers.org/#SVGID_39_" style="overflow:visible;"></use>
					</clipPath>
					<g class="st21">
						<path class="st2" d="M404.5,318.8l10.6-6.1c-1.1,25.7-6.3,48.1-12.8,69.4c-0.2,0.7-0.6,1.1-1,1.4l-10.6,6.1
							c0.4-0.3,0.8-0.7,1-1.4C398.2,366.8,403.3,344.4,404.5,318.8"></path>
					</g>
				</g>
				<g class="st0">
					<defs>
						<path id="SVGID_41_" class="st0" d="M404.5,310.7l10.6-6.1c0,2.7,0,5.3,0,8l-10.6,6.1C404.5,316.1,404.5,313.4,404.5,310.7z"></path>
					</defs>
					<clipPath id="SVGID_42_">
						<use xlink:href="/web/20200803090318im_/https://www.imperfectgamers.org/#SVGID_41_" style="overflow:visible;"></use>
					</clipPath>
					<g class="st22">
						<path class="st2" d="M404.5,310.7l10.6-6.1c0,2.7,0,5.3,0,8l-10.6,6.1C404.5,316.1,404.5,313.4,404.5,310.7"></path>
					</g>
				</g>
				<g class="st0">
					<defs>
						<path id="SVGID_43_" class="st0" d="M328.8,367.9l-10.6,6.1c23.7-13.7,38.3-43,38.4-84.5c0.2-83.5-58.5-185.3-131.3-227.4
							l10.6-6.1c72.8,42.1,131.5,143.8,131.3,227.4C367.1,324.9,352.4,354.1,328.8,367.9z"></path>
					</defs>
					<clipPath id="SVGID_44_">
						<use xlink:href="/web/20200803090318im_/https://www.imperfectgamers.org/#SVGID_43_" style="overflow:visible;"></use>
					</clipPath>
					<g class="st23">
						<path class="st2" d="M225.3,62.1l10.6-6.1c72.8,42.1,131.5,143.8,131.3,227.4c-0.1,41.5-14.8,70.8-38.4,84.5l-10.6,6.1
							c23.7-13.7,38.3-43,38.4-84.5C356.8,206,298.1,104.2,225.3,62.1"></path>
					</g>
				</g>
				<g class="st0">
					<defs>
						<path id="SVGID_45_" class="st0" d="M233.8,33.4l10.6-6.1c8.3,6.2,16.6,12.7,24.7,19.8c44.7,39.3,78.3,88.9,101.5,148
							c7.8,19.8,13.2,39.3,16.6,58.5c0.3,1.7,0.9,2.9,2.1,4.3c9.6,11.3,17.2,24.2,24.7,37.3c0.5,0.9,0.6,1.7,0.7,2.6
							c0.1,2.3,0.3,4.6,0.4,6.9l-10.6,6.1c-0.1-2.3-0.3-4.6-0.4-6.9c0-0.8-0.1-1.6-0.7-2.6c-7.4-13.1-15.1-26-24.7-37.3
							c-1.2-1.4-1.8-2.6-2.1-4.3c-3.4-19.2-8.8-38.7-16.6-58.5c-23.3-59.1-56.8-108.7-101.5-148C250.4,46,242.1,39.6,233.8,33.4z"></path>
					</defs>
					<clipPath id="SVGID_46_">
						<use xlink:href="/web/20200803090318im_/https://www.imperfectgamers.org/#SVGID_45_" style="overflow:visible;"></use>
					</clipPath>
					<g class="st24">
						<path class="st2" d="M233.8,33.4l10.6-6.1c8.3,6.2,16.6,12.7,24.7,19.8c44.7,39.3,78.3,88.9,101.5,148
							c7.8,19.8,13.2,39.3,16.6,58.5c0.3,1.7,0.9,2.9,2.1,4.3c9.6,11.3,17.2,24.2,24.7,37.3c0.5,0.9,0.6,1.7,0.7,2.6
							c0.1,2.3,0.3,4.6,0.4,6.9l-10.6,6.1c-0.1-2.3-0.3-4.6-0.4-6.9c0-0.8-0.1-1.6-0.7-2.6c-7.4-13.1-15.1-26-24.7-37.3
							c-1.2-1.4-1.8-2.6-2.1-4.3c-3.4-19.2-8.8-38.7-16.6-58.5c-23.3-59.1-56.8-108.7-101.5-148C250.4,46,242.1,39.6,233.8,33.4"></path>
					</g>
				</g>
			</g>
			<g>
				<path class="st25" d="M217.6,24c5.4,3.1,10.8,6.3,16.2,9.4c8.3,6.2,16.6,12.7,24.7,19.8c44.7,39.3,78.3,88.9,101.5,148
					c7.8,19.8,13.2,39.3,16.6,58.5c0.3,1.7,0.9,2.9,2.1,4.3c9.6,11.3,17.2,24.2,24.7,37.3c0.5,0.9,0.6,1.7,0.7,2.6
					c0.1,2.3,0.3,4.6,0.4,6.9c0,2.7,0,5.3,0,8c-1.1,25.7-6.3,48.1-12.8,69.4c-0.5,1.5-1.5,1.7-2.7,1.8c-7.8,0.5-16.3-1.1-24.9-3.8
					c-5.2-1.6-8.5-0.6-11.5,2.6c-22,23.5-51.6,30.2-88.9,19.7c-1.3-0.4-2.6-0.9-3.8-1.2c-1.1-2.1-0.6-3-1.7-3.7
					c-0.7-0.5-1.5-1.2-2.3-1.6c-0.6-0.3-1.1-0.5-1.5-0.1c-1.4,1.5-3.3,0.8-5.2-0.4c-0.4-0.2-0.7-0.4-1.1-0.6
					c-0.4-0.2-0.8-0.5-1.2-0.7c-1.5-0.9-3.1-1.8-4.6-2.7c-1.1-0.6-2.2-1.3-3.3-1.9c-1.8-1-3.5-2-5.3-3.1c-1.2-0.7-1.8-1.1-2.3-2.1
					c-0.4-0.9-1-1.7-1.5-2.5c-3.8-6.6-7.6-13.1-11.5-19.8c0.4-0.1,0.9,0.1,1.3,0.3c6.7,3.9,12.4,7.2,18.1,10.4c4,2.3,8,4.6,12,7
					c5.4,3.1,9.7,4.7,14.1,5.8c8,2,15.8,3.1,23.2,3.1c9.9,0.1,19.3-1.3,27.8-4.7c3.8-1.5,7.6-3.2,11.1-5.3c8-4.6,14.7-11,20.5-18.8
					c5.5-7.4,10-16,13.2-25.9c2.5-7.9,4.4-16.4,5.5-25.5c1.3-10.2,1.1-21.1,0.8-32.1c-0.2-8.5-1.5-17.6-3.2-26.7
					c-2.5-13.9-6.1-27.9-11.1-42.1c-5.5-15.6-12.2-31.1-20.3-46.3c-11.4-21.6-24.9-41.3-40.1-59.6c-11.7-14-24.1-26.1-37-36.8
					c-9.1-7.6-18.4-13.7-27.7-19.1c-3.8-2.2-7.7-4.3-11.5-6.3c-10.1-5.3-20.1-8.7-29.9-11c-8-1.9-15.7-2.8-23.1-2.8
					c-9.5,0.1-18.3,1.7-26.6,4.7c-13,4.8-23.5,13.2-32,24.8c-6.7,9-11.5,19.9-14.8,32.3c-1.9,7.3-3.1,15.1-3.8,23.5
					c-0.7,8.7-0.7,17.7-0.3,26.9c0.3,9.2,1.7,18.9,3.6,28.8c2.5,13.1,6,26.4,10.6,39.8c3.1,9.1,6.7,18.2,10.8,27.2
					c0.3,0.7,0.5,1.4,0.9,2.4c-3-1.7-5.9-3.2-8.7-4.9c-1.7-1-3.4-2-5-3.1c-12.4-8.6-23.9-20.2-35.1-32.8c-2-2.3-3.1-4.6-3.7-7.5
					C53,171.8,49,150,46.9,128.8c-0.6-5.8-0.7-11.4-1.1-17.1c0-2.7,0-5.3,0-8c-0.5-6.2,1.7-9.2,5.5-10.8c6.6-2.9,13-6.2,21.1-6
					c1,0,1.2-0.7,1.5-1.7c7.3-32.3,23.6-53.4,46.8-65.9c21-11.4,46.3-11.6,74.6-3.3C202.6,18.1,210.1,21,217.6,24z"></path>
			</g>
			<g>
				<path class="st25" d="M225.3,62.1c72.8,42.1,131.5,143.8,131.3,227.4c-0.2,83.6-59.4,117.3-132.1,75.3
					C151.7,322.8,93,221,93.2,137.5C93.4,53.9,152.6,20.2,225.3,62.1z M316.5,315.9c0-21.6,0-43.2,0.2-64.7c0-2.3-0.7-3.1-2.4-4.1
					c-6.1-3.5-12.1-6.9-18.1-10.4c-6-3.5-12-6.9-18-10.4c-1.6-0.9-2.7-1-3.8-0.3c-6.8,3.9-13.6,7.8-20.4,11.7
					c-1.6,0.9-3.3,1.8-5.4,3c12.6,7.3,24.5,14.2,36.5,21c4.3,2.5,4.2,2.5,4.4,7.5c0.1,2.2-0.4,2.6-2.4,1.4
					c-12.2-7.1-24.3-14.1-36.5-21.1c-10.1-5.8-20.2-11.7-30.4-17.5c-0.2-0.1-0.4-0.2-0.7-0.4c-0.2-0.1-0.3-0.2-0.5-0.3
					c-1.9-1.4-2.9-3.8-3.8-5.8c-0.6-1.3,0.9-1.3,1.6-1.6c8.9-5.1,17.8-10.1,26.6-15.2c0.5-0.3,1.3-0.3,1.4-1.4
					c-0.3-0.2-0.6-0.4-0.9-0.6c-5.4-3.1-10.8-6.2-16.2-9.3c-6.1-3.5-12.1-7-18.2-10.5c-1.3-0.8-2.1-0.6-3-0.1
					c-10.4,6-20.8,11.9-31.3,17.8c-1.1,0.6-1.2,1.2,0,3.3c8.1,13.9,16.2,27.9,24.2,41.9c1,1.8,2,2.8,3.5,3.6
					c17.9,10.3,35.7,20.6,53.6,30.9c19.1,11,38.2,22.1,57.3,33.1C315.8,318.2,316.5,318.2,316.5,315.9 M314.1,239.4
					c2.1,1.2,2.6,0.8,2.5-1.5c-0.1-8.6-0.1-17.1,0.1-25.6c0-2.1-0.4-3.1-2.4-4.2c-10.7-6.2-21.4-12.3-32.2-18.5
					c-8.9-5.2-17.8-10.3-26.8-15.5c-6.5-3.8-13-7.5-19.6-11.3c-13-7.5-26.1-15.1-39.1-22.6c-1.3-0.7-2.3-1.1-3.3-0.5
					c-8.2,4.8-16.4,9.5-24.7,14.1c-1.1,0.6-1.2,1.2-0.1,3.1c5.4,9.2,10.7,18.5,16,27.7c0.5,0.9,0.9,1.4,1.3,1.7
					c0.4,0.2,0.8,0.1,1.4-0.2c5.1-3.1,10.4-5.9,15.6-9c1.2-0.7,2.5-0.6,4.2,0.4C242.9,198.2,278.5,218.7,314.1,239.4 M159.8,235.6
					c0.4-0.4,0.3-1.2,0.3-1.9c0.1-39.9,0.2-79.7,0.4-119.5c0-1.8-0.5-2.6-2-3.5c-4-2.2-7.8-4.4-11.7-6.7c-3.6-2.1-7.2-4.2-10.9-6.4
					c-2-1.2-2.6-0.9-2.6,1.4c0,29.4-0.1,58.8-0.2,88.2c0,1.8,0.4,3.4,1.6,5.3c7.9,13.6,15.7,27.1,23.6,40.7
					C158.6,234,159,234.9,159.8,235.6"></path>
			</g>
		</g>
			<g id="Logo">
			<path class="st26" d="M60.5,250.7c-0.7,0.4-1.4,0.8-2,1.2c0,0,0,0,0,0l10.6-6.1c0,0,0,0,0,0c0.7-0.4,1.4-0.8,2-1.2l0,0
				c0,0,0,0,0,0L60.5,250.7z M81.5,238.6c1-0.6,2.1-1.2,3.1-1.8c0,0,0,0,0.1,0l-10.6,6.1c0,0,0,0-0.1,0c-1,0.6-2.1,1.2-3.1,1.8
				L81.5,238.6z M115.1,272.3c0.3,0.2,0.5,0.3,0.9,0.5c0,0.3-0.1,0.5-0.2,0.7s-0.2,0.3-0.4,0.4l0,0c0,0,0,0,0,0l10.6-6.1
				c0.3-0.2,0.5-0.4,0.6-1c-0.3-0.2-0.6-0.4-0.9-0.5c-4.9-2.8-9.8-5.7-14.7-8.5c-6.5-3.8-13.1-7.6-19.6-11.4c-1.3-0.8-2.1-0.5-3-0.1
				c-10.4,6-20.8,11.9-31.3,17.8c0,0-0.1,0-0.1,0l-10.6,6.1c0,0,0.1,0,0.1,0c10.5-5.9,20.9-11.8,31.3-17.8c0.8-0.5,1.6-0.7,3,0.1
				c6.6,3.8,13.1,7.6,19.6,11.4C105.3,266.6,110.2,269.5,115.1,272.3z M198.3,297.5c-0.1-8.6-0.1-17.1,0.1-25.6
				c0-2.1-0.4-3.1-2.4-4.2c-11.8-6.7-23.6-13.5-35.3-20.3c-7.9-4.5-15.7-9.1-23.6-13.6c-6.5-3.8-13-7.5-19.6-11.3
				c-13-7.5-26.1-15.1-39.1-22.6c-1.3-0.7-2.3-1.1-3.3-0.5l-0.4,0.2c-8,4.7-16.1,9.3-24.3,13.8c0,0,0,0-0.1,0l-8.4,4.9
				c0-14.9,0.1-29.7,0.2-44.6c0-1.9-0.5-2.7-2.1-3.6c-3.9-2.2-7.8-4.5-11.8-6.7c-3.6-2.1-7.1-4.1-10.9-6.4c-0.9-0.5-1.5-0.7-1.9-0.5
				l-10.6,6.1c0.4-0.2,1,0,1.9,0.5c3.8,2.2,7.3,4.3,10.9,6.4c3.9,2.3,7.9,4.5,11.8,6.7c1.6,0.9,2.1,1.7,2.1,3.6
				c-0.2,39.8-0.3,79.7-0.4,119.6c0,0.3,0,0.7,0,1.1c0,0.3-0.1,0.6-0.3,0.8l0,0l0,0l10.6-6.1c0.4-0.4,0.3-1.2,0.3-1.9
				c0.1-25,0.1-50,0.2-74.9c7.4-4.2,14.8-8.4,22.2-12.7l0.4-0.2c1-0.6,2-0.2,3.3,0.5c13,7.5,26.1,15.1,39.1,22.6
				c6.5,3.8,13,7.5,19.6,11.3c7.9,4.5,15.7,9.1,23.6,13.6c11.8,6.8,23.6,13.6,35.3,20.3c2,1.1,2.4,2.1,2.4,4.2
				c-0.1,7.9-0.1,15.9-0.1,23.9c-3.2-1.8-6.3-3.6-9.5-5.5c-6.1-3.5-12.3-7.1-18.4-10.7c-1.6-0.9-2.7-1-3.8-0.3l-1.7,1
				c-6.2,3.6-12.4,7.1-18.6,10.6c-1.6,0.9-3.3,1.8-5.4,3l-6.7,3.9c-7.2-4.2-14.5-8.4-21.7-12.5c-0.2-0.1-0.5-0.3-0.7-0.4
				c-0.2-0.1-0.3-0.2-0.5-0.3c-1.9-1.4-2.9-3.8-3.8-5.8c-0.3-0.6-0.1-0.9,0.3-1.1L86.6,290c-0.3,0.2-0.5,0.5-0.3,1.1
				c0.9,2,1.9,4.4,3.8,5.8c0.1,0.1,0.3,0.2,0.5,0.3c0.2,0.1,0.5,0.3,0.7,0.4c9.4,5.4,18.7,10.8,28.1,16.2
				c12.9,7.4,25.8,14.9,38.7,22.4c1,0.6,1.6,0.8,2,0.6l10.6-6.1c-0.4,0.2-1,0-2-0.6c-12.9-7.5-25.8-14.9-38.7-22.4
				c-2.1-1.2-4.2-2.4-6.3-3.6c0.5-0.3,0.9-0.5,1.4-0.8c3.2-1.8,6.3-3.6,9.5-5.4c3.2-1.8,6.3-3.6,9.5-5.4l1.5-0.9
				c1.1-0.6,2.2-0.6,3.8,0.3c6.2,3.6,12.3,7.2,18.4,10.7c5.8,3.4,11.7,6.7,17.5,10.1c1.8,1.1,2.5,1.9,2.5,4.2
				c-0.1,21.5-0.2,43.1-0.2,64.7c0,0.8-0.1,1.4-0.3,1.7c-0.1,0.1-0.1,0.2-0.2,0.2l0,0c0,0,0,0,0,0l10.6-6.1c0.4-0.2,0.5-0.8,0.5-1.9
				c0-21.6,0-43.2,0.2-64.7c0-2.3-0.7-3.1-2.5-4.2c-1.7-1-3.3-1.9-5-2.9l7.1-4.1C198.1,299.3,198.3,298.6,198.3,297.5z"></path>
				<path class="st27" d="M29.4,176.3c-3.9-2.2-7.8-4.5-11.8-6.7c-3.6-2.1-7.1-4.1-10.9-6.4c-1.8-1.1-2.4-0.8-2.4,1.5
				c0,29.4-0.1,58.8-0.2,88.2c0,1.8,0.4,3.4,1.6,5.3c7.9,13.6,15.7,27.1,23.6,40.7c0.5,0.8,0.8,1.8,1.6,2.4c0.4-0.4,0.3-1.2,0.3-1.9
				c0.1-39.9,0.2-79.7,0.4-119.6C31.5,178,31,177.2,29.4,176.3z M185.1,312.7c-5.8-3.3-11.7-6.7-17.5-10.1
				c-6.1-3.5-12.3-7.1-18.4-10.7c-1.6-0.9-2.7-1-3.8-0.3c-6.8,3.9-13.6,7.8-20.4,11.7c-1.6,0.9-3.3,1.8-5.4,3
				c12.7,7.3,24.5,14.2,36.5,21c4.3,2.5,4.2,2.5,4.4,7.5c0.1,2.2-0.4,2.6-2.4,1.4c-12.9-7.5-25.8-14.9-38.7-22.4
				c-9.4-5.4-18.7-10.8-28.1-16.2c-0.2-0.1-0.5-0.3-0.7-0.4c-0.2-0.1-0.3-0.2-0.5-0.3c-1.9-1.4-2.9-3.8-3.8-5.8
				c-0.6-1.3,0.9-1.3,1.6-1.6c8.9-5.1,17.8-10.1,26.6-15.2c0.5-0.3,1.3-0.3,1.4-1.4c-0.3-0.2-0.6-0.4-0.9-0.5
				c-4.9-2.8-9.8-5.7-14.7-8.5c-6.5-3.8-13.1-7.6-19.6-11.4c-1.3-0.8-2.1-0.5-3-0.1c-10.4,6-20.8,11.9-31.3,17.8
				c-1.1,0.6-1.2,1.2,0,3.3c8.1,13.9,16.2,27.9,24.2,41.9c1,1.8,2,2.8,3.5,3.6c17.8,10.2,35.5,20.5,53.3,30.7
				c19.2,11.1,38.4,22.2,57.6,33.3c1.9,1.1,2.5,1,2.5-1.3c0-21.6,0-43.2,0.2-64.7C187.7,314.6,187,313.8,185.1,312.7z M187.7,278
				c0-2.1-0.4-3.1-2.4-4.2c-11.8-6.7-23.6-13.5-35.3-20.3c-7.9-4.5-15.7-9.1-23.6-13.6c-6.5-3.8-13-7.5-19.6-11.3
				c-13-7.5-26.1-15.1-39.1-22.6c-1.3-0.7-2.3-1.1-3.3-0.5c-8.2,4.8-16.4,9.4-24.7,14.1c-1.1,0.6-1.2,1.2-0.1,3.1
				c5.4,9.2,10.7,18.5,16,27.7c0.5,0.9,0.9,1.5,1.3,1.7c0.4,0.2,0.8,0.1,1.4-0.2c5.2-3.1,10.4-5.9,15.6-9c1.2-0.8,2.5-0.6,4.2,0.5
				c35.6,20.6,71.3,41.2,106.9,61.8c2.1,1.2,2.6,0.8,2.5-1.5C187.6,295,187.6,286.5,187.7,278z"></path>
		</g>
	</g>
</switch>
</svg>