<svg width="4149" height="3075" viewBox="0 0 4149 3075" fill="none" xmlns="http://www.w3.org/2000/svg">
<defs>
    <linearGradient id="umbrellaGradient" x1="0%" y1="0%" x2="0%" y2="100%">
        <stop offset="0%" style="stop-color:#f00;stop-opacity:1" />
        <stop offset="100%" style="stop-color:#c00;stop-opacity:1" />
    </linearGradient>
</defs>
  <style>
    #Umbrella_Handle {
    fill: #fff; /* This is a light gray color that should show up against a dark background */
    }
    #Umbrella_Middle_White, #Umbrella_Top_Stroke, #Umbrella_Left_Middle_Stroke, #Umbrella_Right_Middle_Stroke {
      fill: #fff;
      stroke: #000;
    }
    #Umbrella_Right_Red, #Umbrella_Left_Red {
      fill: #e00;
    }
  </style>
<g id="Umbrella">
<path id="Umbrella_Middle_White" d="M1402 1478L1458 1070L1562 774L1746 398L1906 190L2082 94L2258 190L2338 326L2490 550L2618 774L2682 1022L2754 1342V1478L2490 1382L2298 1342L2082 1294H1954L1746 1342L1650 1382H1562L1402 1478Z" fill="white" stroke="black"/>
<path id="Umbrella_Right_Red" d="M4040.65 1443.16L3672.03 1293.69C3672.03 1293.69 2732.82 1387.61 2763.12 1443.16C2793.41 1498.7 2652.03 806.915 2586.38 665.528C2520.74 524.141 2313.71 327.209 2268.26 256.516C2222.82 185.822 2138.99 194.911 2118.8 120.178C2098.6 45.4452 2212.72 69.683 2313.71 64.6335C2414.7 59.5839 2500.54 110.079 2641.93 145.426C2783.31 180.773 2854.01 251.466 2980.25 281.763C3106.48 312.061 3227.67 332.259 3263.02 382.754C3298.37 433.249 3404.41 448.398 3454.9 514.042C3505.4 579.686 3571.04 630.181 3621.54 685.726C3672.03 741.271 3737.68 721.073 3783.12 842.262C3828.57 963.451 3863.91 973.55 3894.21 1054.34C3924.51 1135.13 4045.7 1311.87 4040.65 1443.16Z" fill="#FF3535"/>
<path id="Umbrella_Left_Red" d="M114.12 1443.16L482.736 1293.69C482.736 1293.69 1421.95 1387.61 1391.65 1443.16C1361.35 1498.7 1502.74 806.915 1568.39 665.528C1634.03 524.141 1841.06 327.209 1886.51 256.516C1931.95 185.822 2015.77 194.911 2035.97 120.178C2056.17 45.4452 1942.05 69.683 1841.06 64.6335C1740.07 59.5839 1654.23 110.079 1512.84 145.426C1371.45 180.773 1300.76 251.466 1174.52 281.763C1048.28 312.061 927.095 332.259 891.748 382.754C856.402 433.249 750.361 448.398 699.866 514.042C649.371 579.686 583.727 630.181 533.231 685.726C482.736 741.271 417.092 721.073 371.646 842.262C326.2 963.451 290.854 973.55 260.557 1054.34C230.259 1135.13 109.071 1311.87 114.12 1443.16Z" fill="#FF3535"/>
<path id="Umbrella_Top_Stroke" fill="url(#umbrellaGradient)" d="M4148.7 1618.88L4020.44 1533.04C3857.84 1423.97 3640.71 1364.38 3409.45 1364.38C3170.1 1364.38 2940.85 1431.04 2780.27 1546.17L2741.9 1573.43L2703.52 1546.17C2542.95 1431.04 2312.69 1364.38 2073.34 1364.38C1829.95 1364.38 1598.68 1432.05 1438.11 1551.22L1398.72 1580.5L1359.33 1551.22C1198.76 1433.06 966.481 1364.38 722.083 1364.38C498.894 1364.38 287.823 1420.94 127.248 1521.93L0 1602.72L27.2673 1454.27C98.9707 1069.49 344.378 706.935 717.034 434.26C1099.79 154.516 1581.51 0 2072.33 0C2566.17 0 3048.91 155.526 3433.68 438.3C3808.36 714.004 4052.76 1078.58 4121.43 1465.38L4148.7 1618.88ZM722.083 1233.1C975.57 1233.1 1218.96 1299.75 1398.72 1417.91C1578.48 1299.75 1820.86 1233.1 2073.34 1233.1C2325.82 1233.1 2561.12 1296.72 2741.9 1412.86C2922.67 1296.72 3157.98 1233.1 3409.45 1233.1C3607.39 1233.1 3797.25 1273.49 3958.83 1348.23C3866.93 1047.27 3657.88 766.519 3356.93 545.35C2995.38 279.744 2538.91 133.308 2073.34 133.308C1609.79 133.308 1156.34 278.734 795.806 542.32C495.864 761.47 284.794 1041.21 191.882 1341.16C348.418 1270.46 532.221 1233.1 722.083 1233.1Z" />
<g id="Umbrella_Handle">
<path d="M2184.74 3074.59V1293.33H1978.31V3074.59H2184.74Z"/>
<path d="M1990.52 3074.18V1945.1H2104.64C2125.85 1945.1 2141 1949.14 2149.08 1957.22C2157.16 1965.3 2163.22 1979.44 2166.25 1999.64L2179.38 2175.36C2217.75 2096.59 2266.23 2034.98 2322.78 1990.55C2379.34 1946.11 2445.99 1923.89 2522.74 1923.89C2554.05 1923.89 2582.33 1927.93 2607.58 1933.99C2632.82 1941.06 2656.05 1951.16 2678.27 1963.28L2653.02 2111.74C2647.97 2129.91 2635.85 2140.01 2618.68 2140.01C2608.59 2140.01 2592.43 2136.98 2571.22 2129.91C2550.01 2122.84 2519.71 2119.81 2481.34 2119.81C2412.66 2119.81 2354.09 2140.01 2307.63 2180.41C2261.18 2220.81 2222.8 2279.38 2191.49 2355.12V3074.18H1990.52Z"/>
</g>
<path id="Umbrella_Left_Middle_Stroke" fill="url(#umbrellaGradient)" d="M1333.07 1498.71C1333.07 1488.62 1333.07 1253.31 1418.92 952.355C1533.04 552.432 1745.12 227.242 2033.95 14.1514L2111.71 120.192C1778.44 366.609 1619.89 727.146 1546.16 984.672C1465.37 1268.46 1464.36 1495.68 1464.36 1497.7L1333.07 1498.71Z"/>
<path id="Umbrella_Right_Middle_Stroke" fill="url(#umbrellaGradient)" d="M2814.62 1498.72H2683.33C2683.33 1496.7 2682.32 1268.46 2601.52 985.685C2527.8 727.149 2369.25 367.622 2035.98 121.205L2113.74 15.165C2402.57 228.255 2614.65 553.445 2728.77 953.368C2814.62 1253.31 2814.62 1488.62 2814.62 1498.72Z"/>
</g>
</svg>
