<svg xmlns="http://www.w3.org/2000/svg" xmlns:xlink="http://www.w3.org/1999/xlink" width="960" height="576" viewBox="0 0 720 432">
  <path fill="none" d="M0 432h720V0H0z"/>
  <path fill="#ffb2a6" stroke="#ffb2a6" d="M369 360.72a142.567 142.567 0 0 0 100.805-41.755A142.567 142.567 0 0 0 511.56 218.16a142.567 142.567 0 0 0-41.755-100.805A142.567 142.567 0 0 0 369 75.6a142.567 142.567 0 0 0-100.805 41.755A142.567 142.567 0 0 0 226.44 218.16a142.567 142.567 0 0 0 41.755 100.805A142.567 142.567 0 0 0 369 360.72z"/>
  <path fill="#ffdacc" stroke="#ffdacc" d="M369 313.2a95.044 95.044 0 0 0 67.203-27.837 95.044 95.044 0 0 0 27.837-67.203 95.044 95.044 0 0 0-27.837-67.203A95.044 95.044 0 0 0 369 123.12a95.044 95.044 0 0 0-67.203 27.837 95.044 95.044 0 0 0-27.837 67.203 95.044 95.044 0 0 0 27.837 67.203A95.044 95.044 0 0 0 369 313.2z"/>
  <path fill="#fff" stroke="#fff" d="M369 265.68a47.522 47.522 0 0 0 47.52-47.52A47.522 47.522 0 0 0 369 170.64a47.522 47.522 0 0 0-47.52 47.52A47.522 47.522 0 0 0 369 265.68z"/>
  <g transform="matrix(.08 0 0 -.08 348.534 62.056)">
    <defs>
      <path id="a" d="M1259 4147V2394h794q441 0 681 228 241 228 241 650 0 419-241 647-240 228-681 228h-794zm-631 519h1425q785 0 1186-355 402-355 402-1039 0-691-402-1044-401-353-1186-353h-794V0H628v4666z" transform="scale(.01563)"/>
      <path id="b" d="M544 1381v2119h575V1403q0-497 193-746 194-248 582-248 465 0 735 297 271 297 271 810v1984h575V0h-575v538q-209-319-486-474-276-155-642-155-603 0-916 375-312 375-312 1097zm1447 2203z" transform="scale(.01563)"/>
      <path id="c" d="M3116 1747q0 634-261 995t-717 361q-457 0-718-361t-261-995q0-634 261-995t718-361q456 0 717 361t261 995zM1159 2969q182 312 458 463 277 152 661 152 638 0 1036-506 399-506 399-1331T3314 415Q2916-91 2278-91q-384 0-661 152-276 152-458 464V0H581v4863h578V2969z" transform="scale(.01563)"/>
      <path id="d" d="M603 4863h575V0H603v4863z" transform="scale(.01563)"/>
      <path id="e" d="M603 3500h575V0H603v3500zm0 1363h575v-729H603v729z" transform="scale(.01563)"/>
      <path id="f" d="M3122 3366v-538q-244 135-489 202t-495 67q-560 0-870-355-309-354-309-995t309-996q310-354 870-354 250 0 495 67t489 202V134Q2881 22 2623-34q-257-57-548-57-791 0-1257 497-465 497-465 1341 0 856 470 1346 471 491 1290 491 265 0 518-55 253-54 491-163z" transform="scale(.01563)"/>
      <path id="g" d="M628 4666h2950v-532H1259V2753h2222v-531H1259V531h2375V0H628v4666z" transform="scale(.01563)"/>
      <path id="h" d="M2059-325q-243-625-475-815-231-191-618-191H506v481h338q237 0 368 113 132 112 291 531l103 262L191 3500h609L1894 763l1094 2737h609L2059-325z" transform="scale(.01563)"/>
      <path id="i" d="M3597 1894v-281H953q38-594 358-905t892-311q331 0 642 81t618 244V178Q3153 47 2828-22t-659-69q-838 0-1327 487-489 488-489 1320 0 859 464 1363 464 505 1252 505 706 0 1117-455 411-454 411-1235zm-575 169q-6 471-264 752-258 282-683 282-481 0-770-272t-333-766l2050 4z" transform="scale(.01563)"/>
    </defs>
    <use xlink:href="#a"/>
    <use xlink:href="#b" x="58.553"/>
    <use xlink:href="#c" x="121.932"/>
    <use xlink:href="#d" x="185.408"/>
    <use xlink:href="#e" x="213.191"/>
    <use xlink:href="#f" x="240.975"/>
    <use xlink:href="#g" x="327.742"/>
    <use xlink:href="#h" x="390.926"/>
    <use xlink:href="#i" x="450.105"/>
  </g>
  <g transform="matrix(.08 0 0 -.08 322.072 109.576)">
    <defs>
      <path id="j" d="M628 4666h2681v-532H1259V2759h1850v-531H1259V0H628v4666z" transform="scale(.01563)"/>
      <path id="k" d="M2906 2969v1894h575V0h-575v525q-181-312-458-464-276-152-664-152-634 0-1033 506-398 507-398 1332t398 1331q399 506 1033 506 388 0 664-152 277-151 458-463zM947 1747q0-634 261-995t717-361q456 0 718 361 263 361 263 995t-263 995q-262 361-718 361t-717-361q-261-361-261-995z" transform="scale(.01563)"/>
      <path id="l" d="M794 531h1031v3560L703 3866v575l1116 225h631V531h1031V0H794v531z" transform="scale(.01563)"/>
      <path id="m" d="M750 794h659V256L897-744H494L750 256v538z" transform="scale(.01563)"/>
      <path id="n" d="M1259 2228V519h1013q509 0 754 211 246 211 246 645 0 438-246 645-245 208-754 208H1259zm0 1919V2741h935q462 0 688 173 227 174 227 530 0 353-227 528-226 175-688 175h-935zm-631 519h1613q722 0 1112-300 391-300 391-853 0-429-200-682t-588-315q466-100 724-418 258-317 258-792 0-625-425-966Q3088 0 2303 0H628v4666z" transform="scale(.01563)"/>
      <path id="o" d="M2194 1759q-697 0-966-159t-269-544q0-306 202-486 202-179 548-179 479 0 768 339t289 901v128h-572zm1147 238V0h-575v531q-197-318-491-470T1556-91q-537 0-855 302-317 302-317 808 0 590 395 890 396 300 1180 300h807v57q0 397-261 614t-733 217q-300 0-585-72-284-72-546-216v532q315 122 612 182 297 61 578 61 760 0 1135-394 375-393 375-1193z" transform="scale(.01563)"/>
      <path id="p" d="M2631 2963q-97 56-211 82-114 27-251 27-488 0-749-317t-261-911V0H581v3500h578v-544q182 319 472 473 291 155 707 155 59 0 131-8 72-7 159-23l3-590z" transform="scale(.01563)"/>
      <path id="q" d="M-19 4666h3947v-532H2272V0h-634v4134H-19v532z" transform="scale(.01563)"/>
      <path id="r" d="M1959 3097q-462 0-731-361t-269-989q0-628 267-989 268-361 733-361 460 0 728 362 269 363 269 988 0 622-269 986-268 364-728 364zm0 487q750 0 1178-488 429-487 429-1349 0-859-429-1349Q2709-91 1959-91q-753 0-1180 489-426 490-426 1349 0 862 426 1349 427 488 1180 488z" transform="scale(.01563)"/>
      <path id="s" d="M3513 2113V0h-575v2094q0 497-194 743-194 247-581 247-466 0-735-297-269-296-269-809V0H581v3500h578v-544q207 316 486 472 280 156 646 156 603 0 912-373 310-373 310-1098z" transform="scale(.01563)"/>
      <path id="t" d="M1172 4494v-994h1184v-447H1172V1153q0-428 117-550t477-122h590V0h-590q-666 0-919 248-253 249-253 905v1900H172v447h422v994h578z" transform="scale(.01563)"/>
    </defs>
    <use xlink:href="#j"/>
    <use xlink:href="#i" x="52.02"/>
    <use xlink:href="#i" x="113.543"/>
    <use xlink:href="#k" x="175.066"/>
    <use xlink:href="#l" x="270.33"/>
    <use xlink:href="#m" x="333.953"/>
    <use xlink:href="#n" x="397.527"/>
    <use xlink:href="#o" x="466.131"/>
    <use xlink:href="#p" x="527.41"/>
    <use xlink:href="#p" x="566.773"/>
    <use xlink:href="#e" x="607.887"/>
    <use xlink:href="#i" x="635.67"/>
    <use xlink:href="#p" x="697.193"/>
    <use xlink:href="#q" x="770.094"/>
    <use xlink:href="#r" x="814.178"/>
    <use xlink:href="#g" x="907.146"/>
    <use xlink:href="#s" x="970.33"/>
    <use xlink:href="#t" x="1033.709"/>
    <use xlink:href="#p" x="1072.918"/>
    <use xlink:href="#h" x="1114.031"/>
  </g>
  <g transform="matrix(.08 0 0 -.08 325.019 157.096)">
    <defs>
      <path id="u" d="M1228 531h2203V0H469v531q359 372 979 998 621 627 780 809 303 340 423 576 121 236 121 464 0 372-261 606-261 235-680 235-297 0-627-103-329-103-704-313v638q381 153 712 231 332 78 607 78 725 0 1156-363 431-362 431-968 0-288-108-546-107-257-392-607-78-91-497-524-418-433-1181-1211z" transform="scale(.01563)"/>
      <path id="v" d="M4122 4306v-665q-319 297-680 443-361 147-767 147-800 0-1225-489t-425-1414q0-922 425-1411t1225-489q406 0 767 147t680 444V359q-331-225-702-338-370-112-782-112-1060 0-1670 648-609 649-609 1771 0 1125 609 1773 610 649 1670 649 418 0 788-111 371-111 696-333z" transform="scale(.01563)"/>
      <path id="w" d="M2834 3397v-544q-243 125-506 187-262 63-544 63-428 0-642-131t-214-394q0-200 153-314t616-217l197-44q612-131 870-370t258-667q0-488-386-773Q2250-91 1575-91q-281 0-586 55T347 128v594q319-166 628-249 309-82 613-82 406 0 624 139 219 139 219 392 0 234-158 359-157 125-692 241l-200 47q-534 112-772 345-237 233-237 639 0 494 350 762 350 269 994 269 318 0 599-47 282-46 519-140z" transform="scale(.01563)"/>
      <path id="x" d="M2522 4238q-688 0-1093-513-404-512-404-1397 0-881 404-1394 405-512 1093-512 687 0 1089 512 402 513 402 1394 0 885-402 1397-402 513-1089 513zm0 512q981 0 1568-658 588-658 588-1764 0-1103-588-1761Q3503-91 2522-91q-984 0-1574 656-589 657-589 1763t589 1764q590 658 1574 658z" transform="scale(.01563)"/>
    </defs>
    <use xlink:href="#j"/>
    <use xlink:href="#i" x="52.02"/>
    <use xlink:href="#i" x="113.543"/>
    <use xlink:href="#k" x="175.066"/>
    <use xlink:href="#u" x="270.33"/>
    <use xlink:href="#m" x="333.953"/>
    <use xlink:href="#v" x="397.527"/>
    <use xlink:href="#r" x="467.352"/>
    <use xlink:href="#s" x="528.533"/>
    <use xlink:href="#t" x="591.912"/>
    <use xlink:href="#o" x="631.121"/>
    <use xlink:href="#f" x="692.4"/>
    <use xlink:href="#t" x="747.381"/>
    <use xlink:href="#w" x="786.59"/>
    <use xlink:href="#x" x="870.477"/>
    <use xlink:href="#s" x="949.188"/>
    <use xlink:href="#d" x="1012.566"/>
    <use xlink:href="#h" x="1040.35"/>
  </g>
</svg>